# xmcd
#
# Track frame offsets: 
#        150
#        14142
#        28403
#        41168
#        56951
#        73314
#        87561
#        105453
#        117491
#        133378
#        147677
#        163947
#
# Disc length: 2423 seconds
#
# Revision: 1
# Processed by: cddbd v1.5.2PL0 Copyright (c) Steve Scherf et al.
# Submitted via: ExactAudioCopyFreeDBPlugin 1.0
#
DISCID=ce09750c
DTITLE=Emmylou Harris - 1978 - Profile [Best Of Emmylou Harris]
DYEAR=1978
DGENRE=Country
TTITLE0=One Of These Days
TTITLE1=Sweet Dreams
TTITLE2=To Daddy
TTITLE3=(You Never Can Tell) C'est Lavie
TTITLE4=Making Believe
TTITLE5=Easy From Now On
TTITLE6=Together Again
TTITLE7=If I Could Only Win Your Love
TTITLE8=Too Far Gone
TTITLE9=Two More Bottles Of Wine
TTITLE10=Boulder To Birmingham
TTITLE11=Hello Stranger
EXTD=
EXTT0=
EXTT1=
EXTT2=
EXTT3=
EXTT4=
EXTT5=
EXTT6=
EXTT7=
EXTT8=
EXTT9=
EXTT10=
EXTT11=
PLAYORDER=
